<svg xmlns="http://www.w3.org/2000/svg" viewBox="0 0 350 141.05"><defs><style>.cls-1{fill:#32c5f4;}</style></defs><g id="Layer_2" data-name="Layer 2"><g id="Layer_1-2" data-name="Layer 1"><path class="cls-1" d="M278.27,56.22c.15-5.44-4.42-11.64-10.31-12.92-6.54-1.42-11.58,1.05-15.44,6.16-1.13,1.51-1.75,1.32-2.76.1a19.1,19.1,0,0,0-4.39-3.73A31.4,31.4,0,0,0,227.32,41c-12.57.21-22.53,5.57-30,15.34a57.76,57.76,0,0,0-12.2,38.85c.46,10.08,3.33,19.39,9.49,27.57,7.68,10.16,17.68,16.54,30.37,18,9.33,1.06,17.9-1.16,24.73-8.18,1.59-1.64,1.65-1.67,2.84.25,3.62,5.77,13.06,7.59,18.15,4.75a13.89,13.89,0,0,0,7.46-12.32c.22-11.64.07-23.3.07-34.95C278.18,78.9,278,67.55,278.27,56.22ZM246.4,106.3c-3.66,5.69-11.79,9.28-18.28,7.47-8.46-2.34-13.08-7.85-14.73-16.2-1.25-6.3-1.07-12.53,1.57-18.46a17.77,17.77,0,0,1,15.4-11c7.4-.66,13.36,2.45,17.21,8.91,2.48,4.17,3,8.89,2.89,13.52A27,27,0,0,1,246.4,106.3Z"/><path class="cls-1" d="M32.46,100.94H57v0c8,0,16.07,0,24.11,0a14.57,14.57,0,0,0,8.57-2.69,7.1,7.1,0,0,0,3.14-6c.18-6.68,0-13.38-2.2-19.74-3.88-11.09-10.68-20-20.87-26-8.11-4.82-17.06-6.22-26.26-5.16a51.59,51.59,0,0,0-21,7.6A44.53,44.53,0,0,0,2.32,74.72c-2.87,9.45-2.89,19.1-1.08,28.79,1.47,7.76,4.37,14.9,9.48,20.95,8.1,9.58,18.81,14.44,31,16a69.29,69.29,0,0,0,23.93-1.2c8.53-1.85,16.27-5.4,22.55-11.66,6.62-6.61,3.93-16.25-3.8-20.42-3.24-1.74-6.44-.53-9.52.71-3.34,1.34-6.37,3.34-9.81,4.53-8.75,3-17.45,3.73-26-.5a17.53,17.53,0,0,1-8.37-8.43C29.7,101.35,30,101,32.46,100.94ZM30.67,78.26c2.25-5.47,5.68-10,11.18-12.41,8-3.54,17.16.23,21.28,8.54a37.51,37.51,0,0,1,1.7,3.71c.72,2,.19,2.63-1.88,2.63H47.62v0c-5.11,0-10.22,0-15.33,0C30.16,80.71,29.85,80.23,30.67,78.26Z"/><path class="cls-1" d="M102.73,69.6q0-28.39,0-56.8a11.79,11.79,0,0,1,6.05-10.68,14.56,14.56,0,0,1,14.1-.57c4.93,2.36,7.22,6.61,7.22,12.07q0,56,0,111.92c0,6.19-2.89,10.27-9,12.76-4.58,1.86-10.81.44-14.54-3.12-3-2.89-3.89-6.46-3.88-10.46q.06-27.56,0-55.12Z"/><path class="cls-1" d="M290.07,90.27c0-11.28.19-22.56-.09-33.83-.12-5.14,2.1-8.49,6.14-11,6.18-3.91,13.44-3.19,18.26,1.86,1.13,1.19,2.1,2.53,3.15,3.81a36.5,36.5,0,0,1,3.38-3.43,30.58,30.58,0,0,1,12-6.24c8.34-1.9,15.26,3,16.67,11,.13.73.28,1.46.34,2.2.58,6.85-.84,8.69-6.91,11.93-4.17,2.23-8.8,3.37-13.28,4.82-6,2-10.46,5.58-12.41,11.79a21.11,21.11,0,0,0-.51,5.72c-.1,3.54,0,7.08,0,10.62,0,8,0,16,0,23.93,0,1.79.33,3.57-.15,5.36-2.19,8.21-12,11.53-18.42,8.54-5.32-2.48-8.19-6.52-8.14-12.59C290.13,113.19,290.07,101.73,290.07,90.27Z"/><path class="cls-1" d="M183.35,138.19c-7.64,1.68-15.33,2.09-22.9-.05a29.9,29.9,0,0,1-18.57-15.08A71,71,0,0,1,135,103.87a7.78,7.78,0,0,1-.12-1.67c0-1-1-2.32.09-2.91.87-.5,2,.56,2.82,1.08,2.59,1.59,5.07,3.34,7.59,5l13.46,10.36c-1.57-2.38-3.87-4-5.81-6-2.48-2.53-5.06-5-7.59-7.44-1.83-2.12-3.67-4.23-5.48-6.35-.54-.65-1.45-1.3-1.06-2.21s1.34-.43,2-.49c5.7-.56,11.38-1,17,.56a31.14,31.14,0,0,1,19.77,15.57c4.49,8.08,6.42,16.9,7.29,26C185.15,136.84,185,137.84,183.35,138.19Z"/><path class="cls-1" d="M183.35,42.22c-7.64-1.67-15.33-2.08-22.9.05-8.27,2.33-14.41,7.52-18.57,15.08A71,71,0,0,0,135,76.54a7.83,7.83,0,0,0-.12,1.68c0,1-1,2.31.09,2.9.87.5,2-.56,2.82-1.08,2.59-1.58,5.07-3.33,7.59-5l13.46-10.37c-1.57,2.38-3.87,4-5.81,6-2.48,2.53-5.06,5-7.59,7.44-1.83,2.12-3.67,4.23-5.48,6.36-.54.64-1.45,1.29-1.06,2.21.32.75,1.34.42,2,.49,5.7.55,11.38,1,17-.57A31.14,31.14,0,0,0,177.73,71c4.49-8.08,6.42-16.9,7.29-26C185.15,43.57,185,42.57,183.35,42.22Z"/></g></g></svg>